<svg width="59" height="59" viewBox="0 0 59 59" fill="none" xmlns="http://www.w3.org/2000/svg">
<g clip-path="url(#clip0_1159_4007)">
<mask id="path-1-outside-1_1159_4007" maskUnits="userSpaceOnUse" x="-1" y="-1" width="61" height="61" fill="black">
<rect fill="white" x="-1" y="-1" width="61" height="61"/>
<path d="M58.8852 57.972L57.9718 56.0664C57.6797 55.4673 57.1078 55.0544 56.4471 54.9657V31.9566C56.4533 31.0938 56.1131 30.2642 55.5041 29.6516C54.8952 29.0402 54.0669 28.6976 53.2041 28.6988H41.4919V16.3308H42.6567C42.8477 16.3308 43.0302 16.2556 43.1645 16.12C43.2989 15.9845 43.3753 15.802 43.3753 15.6122V11.8441C43.3753 11.6531 43.3001 11.4706 43.1645 11.3363C43.0289 11.2019 42.8465 11.1255 42.6567 11.1255H36.9694V3.93695C36.9694 3.28367 36.7734 2.64394 36.4037 2.10529C36.0339 1.56664 35.5088 1.15249 34.8986 0.91706C31.3882 -0.305687 27.5671 -0.305687 24.0554 0.91706C23.4453 1.15126 22.9202 1.56664 22.5504 2.10529C22.1806 2.64518 21.9834 3.28367 21.9846 3.93695V11.1267H16.2974C15.9005 11.1267 15.5788 11.4485 15.5788 11.8466V15.6147C15.5788 15.8057 15.6539 15.9882 15.7895 16.1225C15.9251 16.2569 16.1075 16.3333 16.2974 16.3333H17.4622V28.7H5.74994C4.89451 28.7025 4.07483 29.0427 3.46962 29.6479C2.86441 30.2531 2.52421 31.0728 2.52174 31.9282V54.9373C1.86106 55.0261 1.28913 55.439 0.997005 56.0368L0.0700837 57.9708C-0.0359206 58.1926 -0.0211293 58.4552 0.11076 58.6635C0.242649 58.8718 0.470681 58.9988 0.717203 59H58.2381C58.4846 59 58.7139 58.8718 58.8445 58.6635C58.9752 58.4552 58.9912 58.1939 58.8852 57.9708V57.972ZM41.4919 33.8363L55.0099 33.8795V54.9533H41.4931V33.8363H41.4919ZM53.2041 30.141C53.6787 30.141 54.1347 30.3295 54.47 30.6648C54.8065 31.0013 54.9938 31.4561 54.9938 31.9307V32.4336L41.4906 32.3979V30.1397H53.2041V30.141ZM36.9251 12.5652H41.9578V14.8948H35.2857L35.4866 14.7654C36.257 14.2687 36.7796 13.4687 36.9251 12.5652ZM23.4218 3.93695C23.4218 3.57579 23.5291 3.22327 23.7325 2.92498C23.9346 2.62545 24.223 2.39496 24.5583 2.26184C27.7458 1.16851 31.207 1.16851 34.3945 2.26184C34.731 2.39496 35.0182 2.62545 35.2204 2.92498C35.4225 3.22327 35.531 3.57703 35.531 3.93695V12.0487C35.5334 12.6589 35.224 13.2283 34.7113 13.5587L32.6331 14.8961L29.4764 16.9237L26.3419 14.9035L24.2428 13.5587C23.73 13.2283 23.4206 12.6589 23.4231 12.0487V3.93695H23.4218ZM17.0147 12.5652H22.0487C22.1942 13.4699 22.7168 14.2687 23.4872 14.7654L23.6881 14.8948H17.016V12.5652H17.0147ZM25.8797 16.3333L29.0647 18.3819C29.3014 18.5335 29.6046 18.5335 29.8413 18.3819L33.0695 16.3333H40.0731V54.9521H36.5355V43.0809C36.5355 42.5582 36.3285 42.0553 35.9587 41.6856C35.5889 41.3145 35.0885 41.1062 34.5658 41.1038H24.3845C23.8619 41.1062 23.3602 41.3145 22.9917 41.6856C22.6219 42.0553 22.4148 42.5582 22.4148 43.0809V54.9521H18.8994V16.3333H25.8809H25.8797ZM23.852 54.9521V43.0809C23.852 42.7863 24.0887 42.5459 24.3845 42.541H28.7566V54.9509H23.852V54.9521ZM30.1938 42.5422H34.5658C34.8604 42.5459 35.0983 42.7863 35.0983 43.0821V54.9533H30.1938V42.5435V42.5422ZM3.94417 54.9521V33.8351L17.4622 33.8782V54.9521H3.94417ZM5.74871 30.1385H17.4609V32.4324L3.94417 32.3966V31.9369C3.9417 31.4586 4.13153 30.9988 4.47049 30.6611C4.80946 30.3234 5.26922 30.1348 5.74871 30.1397V30.1385Z"/>
</mask>
<path d="M58.8852 57.972L57.9718 56.0664C57.6797 55.4673 57.1078 55.0544 56.4471 54.9657V31.9566C56.4533 31.0938 56.1131 30.2642 55.5041 29.6516C54.8952 29.0402 54.0669 28.6976 53.2041 28.6988H41.4919V16.3308H42.6567C42.8477 16.3308 43.0302 16.2556 43.1645 16.12C43.2989 15.9845 43.3753 15.802 43.3753 15.6122V11.8441C43.3753 11.6531 43.3001 11.4706 43.1645 11.3363C43.0289 11.2019 42.8465 11.1255 42.6567 11.1255H36.9694V3.93695C36.9694 3.28367 36.7734 2.64394 36.4037 2.10529C36.0339 1.56664 35.5088 1.15249 34.8986 0.91706C31.3882 -0.305687 27.5671 -0.305687 24.0554 0.91706C23.4453 1.15126 22.9202 1.56664 22.5504 2.10529C22.1806 2.64518 21.9834 3.28367 21.9846 3.93695V11.1267H16.2974C15.9005 11.1267 15.5788 11.4485 15.5788 11.8466V15.6147C15.5788 15.8057 15.6539 15.9882 15.7895 16.1225C15.9251 16.2569 16.1075 16.3333 16.2974 16.3333H17.4622V28.7H5.74994C4.89451 28.7025 4.07483 29.0427 3.46962 29.6479C2.86441 30.2531 2.52421 31.0728 2.52174 31.9282V54.9373C1.86106 55.0261 1.28913 55.439 0.997005 56.0368L0.0700837 57.9708C-0.0359206 58.1926 -0.0211293 58.4552 0.11076 58.6635C0.242649 58.8718 0.470681 58.9988 0.717203 59H58.2381C58.4846 59 58.7139 58.8718 58.8445 58.6635C58.9752 58.4552 58.9912 58.1939 58.8852 57.9708V57.972ZM41.4919 33.8363L55.0099 33.8795V54.9533H41.4931V33.8363H41.4919ZM53.2041 30.141C53.6787 30.141 54.1347 30.3295 54.47 30.6648C54.8065 31.0013 54.9938 31.4561 54.9938 31.9307V32.4336L41.4906 32.3979V30.1397H53.2041V30.141ZM36.9251 12.5652H41.9578V14.8948H35.2857L35.4866 14.7654C36.257 14.2687 36.7796 13.4687 36.9251 12.5652ZM23.4218 3.93695C23.4218 3.57579 23.5291 3.22327 23.7325 2.92498C23.9346 2.62545 24.223 2.39496 24.5583 2.26184C27.7458 1.16851 31.207 1.16851 34.3945 2.26184C34.731 2.39496 35.0182 2.62545 35.2204 2.92498C35.4225 3.22327 35.531 3.57703 35.531 3.93695V12.0487C35.5334 12.6589 35.224 13.2283 34.7113 13.5587L32.6331 14.8961L29.4764 16.9237L26.3419 14.9035L24.2428 13.5587C23.73 13.2283 23.4206 12.6589 23.4231 12.0487V3.93695H23.4218ZM17.0147 12.5652H22.0487C22.1942 13.4699 22.7168 14.2687 23.4872 14.7654L23.6881 14.8948H17.016V12.5652H17.0147ZM25.8797 16.3333L29.0647 18.3819C29.3014 18.5335 29.6046 18.5335 29.8413 18.3819L33.0695 16.3333H40.0731V54.9521H36.5355V43.0809C36.5355 42.5582 36.3285 42.0553 35.9587 41.6856C35.5889 41.3145 35.0885 41.1062 34.5658 41.1038H24.3845C23.8619 41.1062 23.3602 41.3145 22.9917 41.6856C22.6219 42.0553 22.4148 42.5582 22.4148 43.0809V54.9521H18.8994V16.3333H25.8809H25.8797ZM23.852 54.9521V43.0809C23.852 42.7863 24.0887 42.5459 24.3845 42.541H28.7566V54.9509H23.852V54.9521ZM30.1938 42.5422H34.5658C34.8604 42.5459 35.0983 42.7863 35.0983 43.0821V54.9533H30.1938V42.5435V42.5422ZM3.94417 54.9521V33.8351L17.4622 33.8782V54.9521H3.94417ZM5.74871 30.1385H17.4609V32.4324L3.94417 32.3966V31.9369C3.9417 31.4586 4.13153 30.9988 4.47049 30.6611C4.80946 30.3234 5.26922 30.1348 5.74871 30.1397V30.1385Z" fill="#174A96"/>
<path d="M58.8852 57.972L57.9718 56.0664C57.6797 55.4673 57.1078 55.0544 56.4471 54.9657V31.9566C56.4533 31.0938 56.1131 30.2642 55.5041 29.6516C54.8952 29.0402 54.0669 28.6976 53.2041 28.6988H41.4919V16.3308H42.6567C42.8477 16.3308 43.0302 16.2556 43.1645 16.12C43.2989 15.9845 43.3753 15.802 43.3753 15.6122V11.8441C43.3753 11.6531 43.3001 11.4706 43.1645 11.3363C43.0289 11.2019 42.8465 11.1255 42.6567 11.1255H36.9694V3.93695C36.9694 3.28367 36.7734 2.64394 36.4037 2.10529C36.0339 1.56664 35.5088 1.15249 34.8986 0.91706C31.3882 -0.305687 27.5671 -0.305687 24.0554 0.91706C23.4453 1.15126 22.9202 1.56664 22.5504 2.10529C22.1806 2.64518 21.9834 3.28367 21.9846 3.93695V11.1267H16.2974C15.9005 11.1267 15.5788 11.4485 15.5788 11.8466V15.6147C15.5788 15.8057 15.6539 15.9882 15.7895 16.1225C15.9251 16.2569 16.1075 16.3333 16.2974 16.3333H17.4622V28.7H5.74994C4.89451 28.7025 4.07483 29.0427 3.46962 29.6479C2.86441 30.2531 2.52421 31.0728 2.52174 31.9282V54.9373C1.86106 55.0261 1.28913 55.439 0.997005 56.0368L0.0700837 57.9708C-0.0359206 58.1926 -0.0211293 58.4552 0.11076 58.6635C0.242649 58.8718 0.470681 58.9988 0.717203 59H58.2381C58.4846 59 58.7139 58.8718 58.8445 58.6635C58.9752 58.4552 58.9912 58.1939 58.8852 57.9708V57.972ZM41.4919 33.8363L55.0099 33.8795V54.9533H41.4931V33.8363H41.4919ZM53.2041 30.141C53.6787 30.141 54.1347 30.3295 54.47 30.6648C54.8065 31.0013 54.9938 31.4561 54.9938 31.9307V32.4336L41.4906 32.3979V30.1397H53.2041V30.141ZM36.9251 12.5652H41.9578V14.8948H35.2857L35.4866 14.7654C36.257 14.2687 36.7796 13.4687 36.9251 12.5652ZM23.4218 3.93695C23.4218 3.57579 23.5291 3.22327 23.7325 2.92498C23.9346 2.62545 24.223 2.39496 24.5583 2.26184C27.7458 1.16851 31.207 1.16851 34.3945 2.26184C34.731 2.39496 35.0182 2.62545 35.2204 2.92498C35.4225 3.22327 35.531 3.57703 35.531 3.93695V12.0487C35.5334 12.6589 35.224 13.2283 34.7113 13.5587L32.6331 14.8961L29.4764 16.9237L26.3419 14.9035L24.2428 13.5587C23.73 13.2283 23.4206 12.6589 23.4231 12.0487V3.93695H23.4218ZM17.0147 12.5652H22.0487C22.1942 13.4699 22.7168 14.2687 23.4872 14.7654L23.6881 14.8948H17.016V12.5652H17.0147ZM25.8797 16.3333L29.0647 18.3819C29.3014 18.5335 29.6046 18.5335 29.8413 18.3819L33.0695 16.3333H40.0731V54.9521H36.5355V43.0809C36.5355 42.5582 36.3285 42.0553 35.9587 41.6856C35.5889 41.3145 35.0885 41.1062 34.5658 41.1038H24.3845C23.8619 41.1062 23.3602 41.3145 22.9917 41.6856C22.6219 42.0553 22.4148 42.5582 22.4148 43.0809V54.9521H18.8994V16.3333H25.8809H25.8797ZM23.852 54.9521V43.0809C23.852 42.7863 24.0887 42.5459 24.3845 42.541H28.7566V54.9509H23.852V54.9521ZM30.1938 42.5422H34.5658C34.8604 42.5459 35.0983 42.7863 35.0983 43.0821V54.9533H30.1938V42.5435V42.5422ZM3.94417 54.9521V33.8351L17.4622 33.8782V54.9521H3.94417ZM5.74871 30.1385H17.4609V32.4324L3.94417 32.3966V31.9369C3.9417 31.4586 4.13153 30.9988 4.47049 30.6611C4.80946 30.3234 5.26922 30.1348 5.74871 30.1397V30.1385Z" stroke="#174A96" mask="url(#path-1-outside-1_1159_4007)"/>
<path d="M26.6259 48.9775C26.3733 48.9775 26.1452 49.1292 26.0478 49.3633C25.9505 49.5963 26.0047 49.8662 26.1834 50.045C26.3622 50.2237 26.6309 50.2779 26.8651 50.1806C27.098 50.0832 27.2509 49.8552 27.2509 49.6025C27.2509 49.4361 27.1843 49.2771 27.0672 49.16C26.9501 49.0429 26.7911 48.9775 26.6247 48.9775H26.6259Z" fill="#174A96"/>
<path d="M32.6259 49C32.3733 49 32.144 49.1516 32.0478 49.3858C31.9505 49.6188 32.0047 49.8887 32.1834 50.0674C32.3622 50.2462 32.6309 50.3004 32.8651 50.203C33.098 50.1056 33.2509 49.8776 33.2509 49.6249C33.2509 49.4585 33.1843 49.2995 33.0672 49.1824C32.9501 49.0653 32.7911 49 32.6247 49H32.6259Z" fill="#174A96"/>
<path d="M13.0687 44.491H8.22947C7.43567 44.491 6.79102 45.1344 6.79102 45.9294V50.7686C6.79102 51.1495 6.94263 51.5156 7.21257 51.7855C7.48251 52.0555 7.84859 52.2071 8.22947 52.2071H13.0687C13.4496 52.2071 13.8156 52.0555 14.0856 51.7855C14.3555 51.5156 14.5071 51.1495 14.5071 50.7686V45.9294C14.5071 45.5485 14.3555 45.1825 14.0856 44.9125C13.8156 44.6426 13.4496 44.491 13.0687 44.491ZM8.22947 50.7686V45.9294H13.0687V50.7686H8.22947Z" fill="#174A96"/>
<path d="M50.7249 44.491H45.8857C45.0907 44.491 44.4473 45.1344 44.4473 45.9294V50.7686C44.4473 51.1495 44.5989 51.5156 44.8688 51.7855C45.1388 52.0555 45.5048 52.2071 45.8857 52.2071H50.7249C51.1058 52.2071 51.4719 52.0555 51.7418 51.7855C52.0118 51.5156 52.1634 51.1495 52.1634 50.7686V45.9294C52.1634 45.5485 52.0118 45.1825 51.7418 44.9125C51.4719 44.6426 51.1058 44.491 50.7249 44.491ZM50.7249 50.7686H45.8857V45.9294H50.7249V50.7686Z" fill="#174A96"/>
<path d="M25.5802 10.3589H27.3699V12.1486C27.3699 12.3397 27.4451 12.5221 27.5807 12.6565C27.7163 12.7908 27.8987 12.8672 28.0886 12.8672H30.8644C31.0554 12.8672 31.2379 12.792 31.3722 12.6565C31.5066 12.5209 31.583 12.3384 31.583 12.1486V10.3589H33.374C33.565 10.3589 33.7475 10.2825 33.8818 10.1481C34.0162 10.0137 34.0926 9.83008 34.0926 9.64026V6.86443C34.0926 6.67338 34.0174 6.49095 33.8818 6.3566C33.7462 6.22224 33.5638 6.14582 33.374 6.14582H31.583V4.35484C31.583 4.16379 31.5078 3.98136 31.3722 3.84701C31.2366 3.71265 31.0542 3.63623 30.8644 3.63623H28.0886C27.6917 3.63623 27.3699 3.95794 27.3699 4.35484V6.14459H25.579C25.1821 6.14459 24.8604 6.4663 24.8604 6.86443V9.64026C24.8604 9.83132 24.9355 10.0137 25.0711 10.1481C25.2067 10.2825 25.3891 10.3589 25.579 10.3589H25.5802ZM26.2988 7.58304H28.0898C28.2808 7.58304 28.4633 7.50662 28.5976 7.37226C28.732 7.23791 28.8084 7.05425 28.8084 6.86443V5.07468H30.1458V6.86443C30.1458 7.05548 30.221 7.23791 30.3565 7.37226C30.4921 7.50662 30.6746 7.58304 30.8644 7.58304H32.6541V8.92042H30.8644C30.4675 8.92042 30.1458 9.24213 30.1458 9.63903V11.4288H28.8084V9.63903C28.8084 9.44798 28.7332 9.26555 28.5976 9.1312C28.462 8.99684 28.2796 8.92042 28.0898 8.92042H26.2988V7.58304Z" fill="#174A96"/>
</g>
<defs>
<clipPath id="clip0_1159_4007">
<rect width="58.9549" height="59" fill="white"/>
</clipPath>
</defs>
</svg>
