<svg width="140" height="48" viewBox="0 0 140 48" fill="none" xmlns="http://www.w3.org/2000/svg">
<g clip-path="url(#clip0_767_1648)">
<path d="M111.722 10.669L106.855 5.81537L99.8025 12.8476L106.855 19.8798L111.722 15.0262C112.928 13.8231 112.928 11.872 111.722 10.669Z" fill="#F26B4B"/>
<path d="M92.7504 5.81537L87.8831 10.669C86.6767 11.872 86.6767 13.8231 87.8831 15.0262L92.7504 19.8798L99.8025 12.8476L92.7504 5.81537Z" fill="#AB58A2"/>
<path d="M101.884 0.860033C100.734 -0.286149 98.8691 -0.286149 97.7197 0.860033L92.7487 5.81705L99.8007 12.8493L106.853 5.81705L101.882 0.860033H101.884Z" fill="#3CC4E3"/>
<path d="M1.14251 17.8304H8.35879C8.53855 17.8304 8.6993 17.9425 8.76152 18.1097L15.658 36.5606H15.7721L22.1622 18.1183C22.2227 17.9459 22.3852 17.8304 22.5684 17.8304H29.1002C29.9437 17.8304 30.521 18.6784 30.2116 19.4592L20.0362 45.144C19.9705 45.3078 19.8132 45.4146 19.6369 45.4146H11.1658C10.9912 45.4146 10.8357 45.3095 10.7683 45.1492L0.0881578 19.4024C-0.222963 18.6526 0.330141 17.8304 1.14251 17.8304Z" fill="white"/>
<path d="M55.1756 42.0984L52.3444 39.1321L52.2683 39.0529L50.7819 37.3965C50.4604 37.0432 49.8174 36.9329 49.3974 37.1621C49.3974 37.1621 47.9973 38.0859 47.4874 38.2686C46.9274 38.4703 46.3138 38.603 45.6207 38.603C43.4567 38.603 41.7784 37.9601 40.5823 36.6726C39.3879 35.3868 38.7899 33.7029 38.7899 31.6208C38.7899 29.5387 39.3879 27.8565 40.5823 26.569C41.7766 25.2832 43.4567 24.6403 45.6207 24.6403C46.3432 24.6403 47.0259 24.7782 47.6707 25.0505L47.681 25.0539C47.821 25.1177 47.9437 25.1815 48.0544 25.2418L49.4354 26.0967C49.8554 26.3242 50.4984 26.2156 50.8199 25.8623L52.5276 23.9612L53.1827 23.2321L55.1739 21.1449C55.3415 20.9708 55.3294 20.695 55.1548 20.5278C53.8948 19.3299 52.4343 18.4768 50.7715 17.97C48.9687 17.4219 47.2506 17.1461 45.6207 17.1461C43.4947 17.1461 41.4932 17.4874 39.6161 18.1682C37.7372 18.849 36.1056 19.8246 34.7211 21.0914C33.3349 22.36 32.246 23.8819 31.4491 25.6606C30.6523 27.4394 30.2531 29.4267 30.2531 31.6208C30.2531 33.8149 30.6523 35.8022 31.4491 37.5809C32.246 39.3614 33.3366 40.8833 34.7211 42.1501C36.1056 43.4187 37.7372 44.3925 39.6161 45.0733C41.4949 45.7541 43.4947 46.0954 45.6207 46.0954C47.2506 46.0954 48.9687 45.8214 50.7715 45.2715C52.4343 44.7665 53.8948 43.9134 55.1548 42.7137C55.3294 42.5466 55.3415 42.2725 55.1739 42.0967L55.1756 42.0984Z" fill="white"/>
<path d="M83.1886 25.2935C82.8083 23.5338 82.136 22.0498 81.168 20.8381C80.2001 19.6281 78.9107 18.7095 77.298 18.0855C75.6854 17.4616 73.6268 17.1496 71.1223 17.1496C68.8459 17.1496 66.6438 17.5185 64.5196 18.2562C62.5422 18.9422 60.7948 19.9487 59.2789 21.2724C59.0922 21.4344 59.0853 21.7223 59.2582 21.8998L60.2624 22.9271L61.1439 23.9095L62.4748 25.3918C62.7963 25.7451 63.4393 25.8554 63.8593 25.6262L65.2403 24.7713C65.3752 24.6989 65.6396 24.5007 66.0009 24.2628C66.5194 23.9216 67.2384 23.501 68.0612 23.2511C68.8096 23.0425 69.6012 22.9357 70.4378 22.9357C71.9173 22.9357 73.1981 23.3821 74.2801 24.2697C75.0061 24.8678 75.4883 25.6055 75.7269 26.4845C75.9291 27.1343 75.9291 27.8755 75.9291 27.8755H75.4659C74.4115 27.8789 73.2759 27.8996 72.0608 27.9306C70.6746 27.9685 69.2901 28.0823 67.9056 28.2719C66.5194 28.4615 65.1816 28.7545 63.8939 29.1526C62.6027 29.5491 61.455 30.1092 60.4508 30.828C59.4449 31.5467 58.648 32.455 58.0604 33.5529C57.471 34.6509 57.1771 35.9935 57.1771 37.5827C57.1771 38.9839 57.4433 40.2129 57.9739 41.2729C58.5046 42.3329 59.2253 43.2222 60.1362 43.941C61.0471 44.6597 62.0998 45.1992 63.2958 45.5594C64.4902 45.9179 65.7347 46.0989 67.0241 46.0989C68.7698 46.0989 70.4292 45.7766 72.0055 45.1337C73.5801 44.4908 74.8419 43.4308 75.7908 41.9554H75.9049V44.9889C75.9049 45.225 76.0967 45.4181 76.3353 45.4181H83.7607V31.3985C83.7607 29.0906 83.5706 27.0568 83.192 25.297L83.1886 25.2935ZM75.9032 33.7529V35.1404C75.9032 36.0108 75.7234 36.7674 75.3622 37.4103C75.0009 38.0549 74.5169 38.5841 73.9103 38.9995C73.3018 39.4166 72.6105 39.7372 71.8327 39.9647C71.0549 40.1922 70.2477 40.3059 69.4128 40.3059C68.4639 40.3059 67.553 40.0595 66.6801 39.5682C65.8073 39.077 65.3717 38.3204 65.3717 37.2983C65.3717 36.3538 65.6846 35.6161 66.3103 35.0852C66.936 34.5561 67.6947 34.1579 68.5866 33.8942C69.4785 33.6288 70.4084 33.4685 71.3763 33.4116C72.3443 33.3547 73.1497 33.3254 73.7962 33.3254H75.9014V33.7546L75.9032 33.7529Z" fill="white"/>
<path d="M96.5322 32.0999H96.4976C96.3006 32.4102 96.05 32.636 95.7457 32.7756C95.4415 32.9152 95.108 32.9859 94.745 32.9859C94.4944 32.9859 94.2506 32.9514 94.0104 32.8842C93.7719 32.8152 93.5593 32.7135 93.3726 32.5774C93.1859 32.4412 93.0373 32.2706 92.9232 32.0672C92.8091 31.8621 92.7521 31.6242 92.7521 31.3519C92.7521 31.0572 92.8057 30.8055 92.9111 30.597C93.0165 30.3884 93.16 30.2144 93.338 30.0747C93.5161 29.9351 93.7235 29.8231 93.9585 29.7404C94.1936 29.6576 94.439 29.5956 94.6931 29.5525C94.9472 29.5111 95.203 29.4836 95.4623 29.4732C95.7198 29.4611 95.9635 29.456 96.19 29.456H96.5322V29.3077C96.5322 28.9665 96.4147 28.7114 96.1796 28.5425C95.9445 28.3718 95.6438 28.2874 95.2808 28.2874C94.9921 28.2874 94.7225 28.3391 94.4719 28.4408C94.2213 28.5425 94.0052 28.6804 93.8237 28.8544L93.1064 28.1392C93.4106 27.8289 93.7649 27.6066 94.1711 27.4687C94.5773 27.3325 94.9956 27.2636 95.4294 27.2636C95.8166 27.2636 96.1433 27.3067 96.4077 27.3946C96.6739 27.4825 96.8934 27.5928 97.068 27.7289C97.2426 27.8651 97.3774 28.022 97.4725 28.1995C97.5675 28.377 97.6349 28.5563 97.6781 28.739C97.7196 28.9199 97.7438 29.0957 97.7525 29.2664C97.7594 29.437 97.7646 29.587 97.7646 29.7145V32.848H96.5356V32.0982L96.5322 32.0999ZM96.4527 30.4091H96.1675C95.9774 30.4091 95.7648 30.416 95.5297 30.4315C95.2946 30.447 95.0717 30.4832 94.8642 30.5401C94.6551 30.597 94.4788 30.6797 94.3353 30.79C94.1919 30.9003 94.1193 31.0537 94.1193 31.2502C94.1193 31.3795 94.1469 31.4864 94.204 31.5743C94.261 31.6622 94.3353 31.7345 94.4252 31.7949C94.5168 31.8552 94.6188 31.8983 94.7329 31.9259C94.847 31.9517 94.961 31.9655 95.0751 31.9655C95.5452 31.9655 95.8927 31.8535 96.1174 31.6311C96.3421 31.4088 96.4527 31.1037 96.4527 30.7176V30.4108V30.4091Z" fill="white"/>
<path d="M99.2303 27.3998H100.528V28.2736H100.551C100.681 28.0013 100.878 27.7652 101.142 27.5635C101.408 27.3636 101.768 27.2619 102.224 27.2619C102.589 27.2619 102.898 27.3222 103.152 27.4428C103.406 27.5635 103.614 27.7221 103.773 27.9203C103.932 28.1168 104.046 28.3443 104.115 28.6011C104.184 28.8579 104.217 29.1268 104.217 29.4077V32.8463H102.851V30.0885C102.851 29.9369 102.845 29.7697 102.829 29.5835C102.813 29.3974 102.774 29.225 102.71 29.0613C102.646 28.8993 102.544 28.7631 102.407 28.6528C102.271 28.5425 102.084 28.4891 101.849 28.4891C101.614 28.4891 101.429 28.527 101.273 28.6028C101.118 28.6787 100.988 28.7803 100.886 28.9096C100.784 29.0389 100.71 29.1854 100.665 29.3526C100.62 29.5198 100.596 29.6938 100.596 29.8748V32.848H99.2303V27.3998Z" fill="white"/>
<path d="M105.593 25.5503C105.593 25.3314 105.674 25.1401 105.838 24.9763C106.001 24.8143 106.208 24.7316 106.459 24.7316C106.709 24.7316 106.92 24.8092 107.09 24.9643C107.261 25.1194 107.345 25.3142 107.345 25.5486C107.345 25.783 107.261 25.9777 107.09 26.1329C106.919 26.288 106.708 26.3656 106.459 26.3656C106.21 26.3656 106.001 26.2845 105.838 26.1208C105.676 25.9588 105.593 25.7675 105.593 25.5469V25.5503ZM105.786 27.3997H107.152V32.8479H105.786V27.3997Z" fill="white"/>
<path d="M108.666 27.3998H109.964V28.2512H109.986C110.107 27.9944 110.303 27.7652 110.572 27.5652C110.842 27.3653 111.203 27.2636 111.66 27.2636C112.517 27.2636 113.086 27.5997 113.367 28.2736C113.564 27.9254 113.812 27.6704 114.107 27.5066C114.403 27.3446 114.755 27.2619 115.165 27.2619C115.53 27.2619 115.837 27.3222 116.086 27.4428C116.337 27.5635 116.539 27.7307 116.695 27.9427C116.85 28.1547 116.962 28.4029 117.03 28.6855C117.099 28.9699 117.132 29.2733 117.132 29.599V32.8446H115.766V29.7576C115.766 29.5904 115.751 29.4301 115.721 29.275C115.69 29.1199 115.638 28.9837 115.562 28.8665C115.486 28.7493 115.384 28.6562 115.255 28.589C115.125 28.5201 114.959 28.4873 114.754 28.4873C114.548 28.4873 114.361 28.527 114.213 28.6063C114.064 28.6855 113.943 28.7924 113.848 28.9234C113.753 29.0561 113.685 29.2078 113.642 29.3767C113.601 29.5473 113.58 29.7197 113.58 29.8938V32.8446H112.214V29.599C112.214 29.2578 112.142 28.9889 111.998 28.7872C111.855 28.5873 111.615 28.4873 111.281 28.4873C111.053 28.4873 110.861 28.5253 110.706 28.6011C110.55 28.6769 110.42 28.7786 110.318 28.9079C110.216 29.0372 110.142 29.1837 110.097 29.3509C110.052 29.518 110.028 29.6921 110.028 29.8731V32.8463H108.662V27.398L108.666 27.3998Z" fill="white"/>
<path d="M122.041 32.0999H122.006C121.809 32.4102 121.559 32.636 121.254 32.7756C120.95 32.9152 120.616 32.9859 120.254 32.9859C120.003 32.9859 119.759 32.9514 119.519 32.8842C119.28 32.8152 119.068 32.7135 118.881 32.5774C118.694 32.4412 118.546 32.2706 118.432 32.0672C118.318 31.8621 118.261 31.6242 118.261 31.3519C118.261 31.0572 118.314 30.8055 118.42 30.597C118.525 30.3884 118.669 30.2144 118.847 30.0747C119.025 29.9351 119.232 29.8231 119.467 29.7404C119.702 29.6576 119.948 29.5956 120.202 29.5525C120.456 29.5111 120.712 29.4836 120.971 29.4732C121.228 29.4611 121.472 29.456 121.699 29.456H122.041V29.3077C122.041 28.9665 121.923 28.7114 121.688 28.5425C121.453 28.3718 121.152 28.2874 120.789 28.2874C120.501 28.2874 120.231 28.3391 119.98 28.4408C119.73 28.5425 119.514 28.6804 119.332 28.8544L118.615 28.1392C118.919 27.8289 119.273 27.6066 119.68 27.4687C120.086 27.3325 120.504 27.2636 120.938 27.2636C121.325 27.2636 121.652 27.3067 121.916 27.3946C122.182 27.4825 122.402 27.5928 122.577 27.7289C122.751 27.8651 122.886 28.022 122.981 28.1995C123.076 28.377 123.143 28.5563 123.187 28.739C123.228 28.9199 123.252 29.0957 123.261 29.2664C123.268 29.437 123.273 29.587 123.273 29.7145V32.848H122.044V32.0982L122.041 32.0999ZM121.961 30.4091H121.676C121.486 30.4091 121.273 30.416 121.038 30.4315C120.803 30.447 120.58 30.4832 120.373 30.5401C120.164 30.597 119.987 30.6797 119.844 30.79C119.7 30.9003 119.628 31.0537 119.628 31.2502C119.628 31.3795 119.655 31.4864 119.713 31.5743C119.77 31.6622 119.844 31.7345 119.934 31.7949C120.025 31.8552 120.127 31.8983 120.241 31.9259C120.355 31.9517 120.47 31.9655 120.584 31.9655C121.054 31.9655 121.401 31.8535 121.626 31.6311C121.851 31.4088 121.961 31.1037 121.961 30.7176V30.4108V30.4091Z" fill="white"/>
<path d="M124.76 24.268H126.125V32.848H124.76V24.268Z" fill="white"/>
<path d="M94.484 40.7247H94.5065C94.6119 40.4972 94.8003 40.2921 95.07 40.106C95.3396 39.9198 95.687 39.8285 96.1122 39.8285C96.4769 39.8285 96.7863 39.8888 97.0404 40.0095C97.2945 40.1301 97.5019 40.2887 97.6609 40.4869C97.8199 40.6834 97.934 40.9109 98.0031 41.1677C98.0723 41.4245 98.1051 41.6934 98.1051 41.9743V45.4129H96.7396V42.6552C96.7396 42.5035 96.7327 42.3363 96.7172 42.1501C96.7016 41.964 96.6619 41.7916 96.5979 41.6279C96.5339 41.4659 96.4337 41.3297 96.2954 41.2194C96.1589 41.1091 95.9722 41.0557 95.7371 41.0557C95.5021 41.0557 95.3171 41.0936 95.1616 41.1694C95.006 41.2453 94.8764 41.347 94.7744 41.4762C94.6724 41.6055 94.5981 41.752 94.5531 41.9192C94.5082 42.0864 94.484 42.2605 94.484 42.4414V45.4146H93.1185V36.8346H94.484V40.7282V40.7247Z" fill="white"/>
<path d="M99.379 42.6879C99.379 42.257 99.4568 41.8658 99.6124 41.5124C99.7679 41.1608 99.9788 40.8592 100.243 40.6093C100.509 40.3594 100.824 40.1663 101.189 40.0301C101.553 39.894 101.941 39.825 102.35 39.825C102.76 39.825 103.147 39.894 103.512 40.0301C103.876 40.1663 104.191 40.3594 104.457 40.6093C104.723 40.8592 104.933 41.1591 105.088 41.5124C105.244 41.864 105.321 42.2553 105.321 42.6879C105.321 43.1205 105.244 43.5101 105.088 43.8634C104.933 44.215 104.722 44.5166 104.457 44.7666C104.191 45.0165 103.876 45.2095 103.512 45.3457C103.147 45.4818 102.76 45.5508 102.35 45.5508C101.941 45.5508 101.553 45.4818 101.189 45.3457C100.824 45.2095 100.509 45.0165 100.243 44.7666C99.9771 44.5166 99.7662 44.2167 99.6124 43.8634C99.4568 43.5118 99.379 43.1205 99.379 42.6879ZM100.744 42.6879C100.744 42.8999 100.781 43.1033 100.853 43.3015C100.926 43.498 101.031 43.6721 101.171 43.8238C101.311 43.9754 101.481 44.0961 101.678 44.1874C101.875 44.2788 102.1 44.3236 102.35 44.3236C102.601 44.3236 102.824 44.2788 103.023 44.1874C103.22 44.0961 103.389 43.9754 103.529 43.8238C103.669 43.6721 103.776 43.498 103.847 43.3015C103.92 43.105 103.956 42.8999 103.956 42.6879C103.956 42.4759 103.92 42.2725 103.847 42.0743C103.774 41.8778 103.669 41.7037 103.529 41.5521C103.389 41.4004 103.22 41.2797 103.023 41.1884C102.826 41.097 102.601 41.0522 102.35 41.0522C102.1 41.0522 101.877 41.097 101.678 41.1884C101.481 41.2797 101.311 41.4004 101.171 41.5521C101.031 41.7037 100.924 41.8778 100.853 42.0743C100.781 42.2708 100.744 42.4759 100.744 42.6879Z" fill="white"/>
<path d="M109.508 41.4745C109.241 41.104 108.885 40.9178 108.438 40.9178C108.256 40.9178 108.076 40.9626 107.904 41.054C107.729 41.1453 107.643 41.2918 107.643 41.4969C107.643 41.6641 107.715 41.7848 107.859 41.8606C108.002 41.9364 108.185 42.0002 108.405 42.0537C108.624 42.1071 108.861 42.1622 109.117 42.2174C109.371 42.2743 109.608 42.3604 109.829 42.4777C110.049 42.5949 110.232 42.7551 110.375 42.9603C110.519 43.1654 110.591 43.4446 110.591 43.7996C110.591 44.1254 110.521 44.3994 110.381 44.6218C110.241 44.8459 110.057 45.0251 109.834 45.1613C109.61 45.2974 109.357 45.3957 109.077 45.456C108.797 45.5163 108.516 45.5473 108.236 45.5473C107.81 45.5473 107.42 45.487 107.064 45.3664C106.708 45.2457 106.388 45.0251 106.108 44.708L107.019 43.8565C107.193 44.053 107.382 44.2133 107.582 44.3391C107.783 44.4632 108.028 44.527 108.317 44.527C108.415 44.527 108.517 44.5149 108.624 44.4925C108.73 44.4701 108.83 44.4322 108.92 44.3788C109.012 44.3253 109.084 44.2598 109.141 44.1805C109.198 44.1013 109.226 44.0082 109.226 43.9031C109.226 43.7135 109.153 43.5738 109.01 43.4825C108.866 43.3911 108.683 43.3188 108.464 43.2619C108.244 43.205 108.006 43.1516 107.752 43.1033C107.497 43.0533 107.261 42.974 107.039 42.8655C106.82 42.7551 106.637 42.6035 106.493 42.4053C106.35 42.2088 106.277 41.9364 106.277 41.5883C106.277 41.2849 106.339 41.023 106.466 40.7989C106.59 40.5765 106.756 40.3921 106.96 40.2491C107.166 40.106 107.401 39.9991 107.665 39.9319C107.931 39.863 108.199 39.8302 108.474 39.8302C108.839 39.8302 109.198 39.8923 109.556 40.0181C109.912 40.1422 110.201 40.3576 110.42 40.6593L109.509 41.4763L109.508 41.4745Z" fill="white"/>
<path d="M111.647 39.9647H112.946V40.7817H112.968C113.165 40.449 113.431 40.206 113.765 40.056C114.098 39.9044 114.46 39.8285 114.847 39.8285C115.263 39.8285 115.64 39.9026 115.974 40.0491C116.307 40.1974 116.593 40.399 116.828 40.6558C117.063 40.9127 117.241 41.216 117.363 41.5642C117.484 41.9123 117.545 42.2863 117.545 42.6879C117.545 43.0895 117.481 43.4636 117.351 43.8117C117.222 44.1599 117.042 44.4632 116.81 44.72C116.579 44.9769 116.3 45.1802 115.974 45.3267C115.647 45.475 115.291 45.5474 114.904 45.5474C114.646 45.5474 114.418 45.5215 114.221 45.4681C114.024 45.4146 113.85 45.3474 113.697 45.263C113.545 45.1802 113.417 45.0906 113.31 44.9958C113.203 44.901 113.117 44.8079 113.049 44.7183H113.015V47.9983H111.649V39.963L111.647 39.9647ZM116.178 42.6879C116.178 42.4759 116.141 42.2726 116.069 42.0743C115.996 41.8779 115.891 41.7038 115.751 41.5521C115.611 41.4004 115.441 41.2798 115.244 41.1884C115.047 41.0971 114.823 41.0523 114.572 41.0523C114.321 41.0523 114.098 41.0971 113.9 41.1884C113.703 41.2798 113.533 41.4004 113.393 41.5521C113.253 41.7038 113.146 41.8779 113.075 42.0743C113.003 42.2708 112.966 42.4759 112.966 42.6879C112.966 42.8999 113.003 43.1033 113.075 43.3015C113.148 43.498 113.253 43.6721 113.393 43.8238C113.533 43.9755 113.703 44.0961 113.9 44.1875C114.097 44.2788 114.321 44.3236 114.572 44.3236C114.823 44.3236 115.046 44.2788 115.244 44.1875C115.441 44.0961 115.611 43.9755 115.751 43.8238C115.891 43.6721 115.998 43.498 116.069 43.3015C116.141 43.105 116.178 42.8999 116.178 42.6879Z" fill="white"/>
<path d="M118.648 38.1153C118.648 37.8964 118.729 37.7051 118.893 37.5413C119.056 37.3793 119.263 37.2966 119.514 37.2966C119.764 37.2966 119.975 37.3741 120.145 37.5293C120.316 37.6844 120.4 37.8791 120.4 38.1135C120.4 38.348 120.316 38.5427 120.145 38.6978C119.973 38.853 119.763 38.9305 119.514 38.9305C119.265 38.9305 119.056 38.8495 118.893 38.6858C118.731 38.5238 118.648 38.3324 118.648 38.1118V38.1153ZM118.841 39.9647H120.207V45.4129H118.841V39.9647Z" fill="white"/>
<path d="M121.14 41.1229V39.9646H122.267V38.3876H123.633V39.9646H125.135V41.1229H123.633V43.5066C123.633 43.7789 123.684 43.9944 123.786 44.153C123.888 44.3115 124.092 44.3908 124.395 44.3908C124.516 44.3908 124.649 44.377 124.792 44.3512C124.936 44.3253 125.05 44.2805 125.135 44.2202V45.3664C124.991 45.4353 124.813 45.4818 124.606 45.5077C124.397 45.5335 124.213 45.5473 124.054 45.5473C123.69 45.5473 123.392 45.5077 123.161 45.4284C122.929 45.3491 122.748 45.2285 122.615 45.0647C122.481 44.9027 122.39 44.6993 122.341 44.458C122.291 44.2167 122.267 43.9358 122.267 43.6186V41.1212H121.14V41.1229Z" fill="white"/>
<path d="M129.62 44.6632H129.585C129.388 44.9734 129.138 45.1992 128.834 45.3388C128.529 45.4784 128.196 45.5491 127.831 45.5491C127.58 45.5491 127.337 45.5146 127.096 45.4474C126.858 45.3784 126.645 45.2767 126.459 45.1406C126.272 45.0044 126.123 44.8338 126.009 44.6304C125.895 44.4253 125.838 44.1874 125.838 43.9151C125.838 43.6204 125.892 43.3687 125.997 43.1602C126.103 42.9516 126.246 42.7776 126.424 42.6379C126.602 42.4983 126.81 42.3863 127.045 42.3036C127.28 42.2208 127.525 42.1588 127.779 42.1157C128.033 42.0743 128.289 42.0468 128.547 42.0364C128.804 42.0243 129.048 42.0192 129.274 42.0192H129.617V41.8709C129.617 41.5297 129.499 41.2746 129.264 41.1057C129.029 40.935 128.73 40.8506 128.365 40.8506C128.076 40.8506 127.807 40.9023 127.556 41.004C127.306 41.1057 127.09 41.2436 126.908 41.4176L126.191 40.7024C126.495 40.3921 126.849 40.168 127.255 40.0319C127.662 39.8957 128.08 39.8268 128.514 39.8268C128.901 39.8268 129.228 39.8699 129.492 39.9578C129.758 40.0457 129.978 40.156 130.152 40.2921C130.327 40.4283 130.462 40.5852 130.557 40.7627C130.652 40.9402 130.719 41.1195 130.763 41.3022C130.804 41.4831 130.828 41.6589 130.837 41.8296C130.844 42.0002 130.849 42.1502 130.849 42.2777V45.4112H129.62V44.6614V44.6632ZM129.54 42.9723H129.255C129.065 42.9723 128.853 42.9792 128.617 42.9947C128.382 43.0102 128.159 43.0464 127.952 43.1033C127.743 43.1602 127.567 43.2429 127.423 43.3532C127.28 43.4635 127.207 43.6169 127.207 43.8134C127.207 43.9427 127.235 44.0496 127.292 44.1375C127.349 44.2254 127.423 44.2977 127.513 44.3581C127.605 44.4184 127.707 44.4615 127.821 44.4891C127.935 44.5149 128.049 44.5287 128.163 44.5287C128.633 44.5287 128.98 44.4167 129.205 44.1943C129.43 43.972 129.54 43.6669 129.54 43.2808V42.974V42.9723Z" fill="white"/>
<path d="M132.341 36.8329H133.706V45.4129H132.341V36.8329Z" fill="white"/>
<path d="M138.191 41.4745C137.925 41.104 137.569 40.9178 137.121 40.9178C136.94 40.9178 136.76 40.9626 136.587 41.054C136.413 41.1453 136.326 41.2918 136.326 41.4969C136.326 41.6641 136.399 41.7848 136.542 41.8606C136.686 41.9364 136.869 42.0002 137.089 42.0537C137.308 42.1071 137.545 42.1622 137.801 42.2174C138.055 42.2743 138.292 42.3604 138.513 42.4777C138.732 42.5949 138.916 42.7551 139.059 42.9603C139.203 43.1654 139.275 43.4446 139.275 43.7996C139.275 44.1254 139.204 44.3994 139.064 44.6218C138.924 44.8459 138.741 45.0251 138.518 45.1613C138.293 45.2974 138.041 45.3957 137.761 45.456C137.481 45.5163 137.199 45.5473 136.919 45.5473C136.494 45.5473 136.103 45.487 135.747 45.3664C135.391 45.2457 135.072 45.0251 134.792 44.708L135.702 43.8565C135.877 44.053 136.065 44.2133 136.266 44.3391C136.466 44.4632 136.712 44.527 137 44.527C137.099 44.527 137.201 44.5149 137.308 44.4925C137.414 44.4701 137.514 44.4322 137.604 44.3788C137.695 44.3253 137.768 44.2598 137.825 44.1805C137.882 44.1013 137.91 44.0082 137.91 43.9031C137.91 43.7135 137.837 43.5738 137.694 43.4825C137.55 43.3911 137.367 43.3188 137.147 43.2619C136.928 43.205 136.689 43.1516 136.435 43.1033C136.181 43.0533 135.944 42.974 135.723 42.8655C135.504 42.7551 135.32 42.6035 135.177 42.4053C135.033 42.2088 134.961 41.9364 134.961 41.5883C134.961 41.2849 135.023 41.023 135.149 40.7989C135.274 40.5765 135.44 40.3921 135.644 40.2491C135.849 40.106 136.084 39.9991 136.349 39.9319C136.615 39.863 136.883 39.8302 137.158 39.8302C137.522 39.8302 137.882 39.8923 138.24 40.0181C138.596 40.1422 138.884 40.3576 139.104 40.6593L138.193 41.4763L138.191 41.4745Z" fill="white"/>
<path d="M109.84 18.8059H109.454V18.6008H110.469V18.8059H110.083V19.8797H109.841V18.8059H109.84ZM110.714 18.6008H111.084L111.43 19.5815H111.438L111.784 18.6008H112.154V19.8797H111.912V18.8111H111.905L111.532 19.8797H111.336L110.963 18.8111H110.956V19.8797H110.714V18.6008Z" fill="white"/>
</g>
<defs>
<clipPath id="clip0_767_1648">
<rect width="139.272" height="48" fill="white"/>
</clipPath>
</defs>
</svg>
