<svg width="67" height="55" viewBox="0 0 67 55" fill="none" xmlns="http://www.w3.org/2000/svg">
<g clip-path="url(#clip0_1159_4017)">
<path d="M33.5503 54.4831C44.166 54.4831 53.8333 48.2177 58.1775 38.5198C58.4681 37.8728 58.1775 37.111 57.5305 36.8219C56.8819 36.5313 56.1217 36.8219 55.8326 37.4689C51.8999 46.2429 43.1534 51.9118 33.5488 51.9118C20.9384 51.9118 10.5292 42.2995 9.26572 30.0165L15.0493 34.6513C15.603 35.0965 16.4107 35.0062 16.8558 34.4525C17.2994 33.8988 17.2107 33.0896 16.6569 32.646L8.63551 26.2169C8.36936 26.0043 8.02978 25.9049 7.6902 25.9431C7.35062 25.9813 7.04163 26.1511 6.82901 26.4173L0.40146 34.4402C-0.042136 34.994 0.0465832 35.8032 0.600313 36.2467C0.837407 36.4364 1.12192 36.5282 1.40337 36.5282C1.77967 36.5282 2.1529 36.3645 2.40682 36.0464L6.75406 30.6223C8.30817 44.0357 19.7285 54.4831 33.5518 54.4831H33.5503Z" fill="#174A96" stroke="#174A96" stroke-width="0.5"/>
<path d="M66.5196 18.8498C65.9658 18.4062 65.1567 18.4965 64.7146 19.0487L60.3612 24.482C58.8561 11.0196 47.4098 0.51709 33.5512 0.51709C23.2782 0.51709 14.033 6.2303 9.42268 15.425C9.10451 16.0582 9.36149 16.8322 9.99477 17.1489C10.628 17.467 11.402 17.2101 11.7187 16.5753C15.8915 8.25554 24.2571 3.08689 33.5512 3.08689C46.1922 3.08689 56.6197 12.745 57.8419 25.0693L52.069 20.4437C51.5153 20.0016 50.7077 20.0888 50.2641 20.6426C49.8205 21.1963 49.9092 22.0039 50.4629 22.4491L58.4844 28.8766C58.7215 29.0663 59.006 29.1581 59.2874 29.1581C59.6637 29.1581 60.0369 28.9944 60.2909 28.6762L66.7184 20.6548C67.162 20.1011 67.0733 19.2934 66.5196 18.8483V18.8498Z" fill="#174A96" stroke="#174A96" stroke-width="0.5"/>
</g>
<defs>
<clipPath id="clip0_1159_4017">
<rect width="66.8805" height="53.9657" fill="white" transform="translate(0.119141 0.51709)"/>
</clipPath>
</defs>
</svg>
