<svg width="50" height="65" viewBox="0 0 50 65" fill="none" xmlns="http://www.w3.org/2000/svg">
<path d="M24.5583 65C10.7835 65 0 59.3017 0 52.0266C0.0590876 41.8413 6.40362 32.7492 15.9426 29.1781C12.8626 27.1987 10.5582 24.2185 9.41709 20.7397C6.72491 12.4157 11.2894 3.48239 19.6134 0.790211L19.6577 0.775439C28.0075 -1.92043 36.9667 2.6367 39.6995 10.9754C41.9079 17.8222 39.2268 25.2931 33.174 29.1781C42.713 32.7492 49.0538 41.834 49.1166 52.0192C49.1166 59.3017 38.3257 65 24.5583 65ZM24.5583 30.1715L20.4074 30.984C10.3256 32.9597 3.03563 41.7638 2.96915 52.034C2.95438 56.8755 11.6329 62.0456 24.5583 62.0456C36.2724 62.0456 46.1696 57.4589 46.1696 52.0266C46.1068 41.749 38.8058 32.9413 28.7166 30.9766L24.5583 30.1715ZM24.5583 2.95799C17.4419 2.91367 11.6329 8.64886 11.5886 15.7652C11.5516 21.4044 15.1892 26.4121 20.5625 28.1256L24.5583 29.4145L28.5467 28.1256C35.327 25.9615 39.0717 18.7122 36.9113 11.9319C35.1978 6.56233 30.1938 2.92844 24.5583 2.95799Z" fill="#174A96"/>
<g clip-path="url(#clip0_862_1186)">
<path d="M36.3883 46.3271C36.3883 47.4256 35.4503 48.3192 34.2979 48.3192H31.816C30.6636 48.3192 29.7256 47.4256 29.7256 46.3271C29.7256 45.5802 30.1607 44.9014 30.8608 44.5563C31.1788 44.4001 31.465 44.1592 31.6894 43.8609C32.0162 43.4265 32.5432 43.1673 33.1002 43.1673C33.6573 43.1673 34.2149 43.4413 34.5394 43.9C34.7343 44.1758 35.014 44.4196 35.3473 44.6049C35.9897 44.9623 36.3889 45.6222 36.3889 46.3265L36.3883 46.3271Z" fill="white"/>
<path d="M36.419 41.8481C36.9542 41.8481 37.3894 42.2855 37.3894 42.8234V43.5159C37.3894 44.0539 36.9542 44.4912 36.419 44.4912C35.8837 44.4912 35.4486 44.0539 35.4486 43.5159V42.8234C35.4486 42.2855 35.8837 41.8481 36.419 41.8481ZM36.2211 43.5159C36.2211 43.6236 36.3118 43.7147 36.419 43.7147C36.5262 43.7147 36.6168 43.6236 36.6168 43.5159V42.8234C36.6168 42.7157 36.5262 42.6246 36.419 42.6246C36.3118 42.6246 36.2211 42.7157 36.2211 42.8234V43.5159Z" fill="white"/>
<path d="M34.2986 42.9086C33.7634 42.9086 33.3282 42.4713 33.3282 41.9333V41.2408C33.3282 40.7029 33.7634 40.2655 34.2986 40.2655C34.8339 40.2655 35.269 40.7029 35.269 41.2408V41.9333C35.269 42.4713 34.8339 42.9086 34.2986 42.9086ZM34.4965 41.2408C34.4965 41.1331 34.4058 41.042 34.2992 41.042C34.1926 41.042 34.1014 41.1331 34.1014 41.2408V41.9333C34.1014 42.041 34.192 42.1322 34.2992 42.1322C34.4064 42.1322 34.4965 42.041 34.4965 41.9333V41.2408Z" fill="white"/>
<path d="M31.8448 42.9086C31.3095 42.9086 30.8744 42.4713 30.8744 41.9333V41.2408C30.8744 40.7029 31.3095 40.2655 31.8448 40.2655C32.38 40.2655 32.8152 40.7029 32.8152 41.2408V41.9333C32.8152 42.4713 32.38 42.9086 31.8448 42.9086ZM32.0426 41.2408C32.0426 41.1331 31.9519 41.042 31.8454 41.042C31.7388 41.042 31.6475 41.1331 31.6475 41.2408V41.9333C31.6475 42.041 31.7382 42.1322 31.8454 42.1322C31.9525 42.1322 32.0426 42.041 32.0426 41.9333V41.2408Z" fill="white"/>
<path d="M29.7315 44.4912C29.1962 44.4912 28.7611 44.0539 28.7611 43.5159V42.8234C28.7611 42.2855 29.1962 41.8481 29.7315 41.8481C30.2667 41.8481 30.7019 42.2855 30.7019 42.8234V43.5159C30.7019 44.0539 30.2667 44.4912 29.7315 44.4912ZM29.9293 42.8234C29.9293 42.7157 29.8387 42.6246 29.7315 42.6246C29.6243 42.6246 29.5336 42.7157 29.5336 42.8234V43.5159C29.5336 43.6236 29.6243 43.7147 29.7315 43.7147C29.8387 43.7147 29.9293 43.6236 29.9293 43.5159V42.8234Z" fill="white"/>
</g>
<defs>
<clipPath id="clip0_862_1186">
<rect width="8.62833" height="8.05311" fill="white" transform="matrix(-1 0 0 1 37.3894 40.2655)"/>
</clipPath>
</defs>
</svg>
