<svg width="52" height="65" viewBox="0 0 52 65" fill="none" xmlns="http://www.w3.org/2000/svg">
<g clip-path="url(#clip0_862_1175)">
<path d="M51.1947 25.2072C51.1984 21.1211 47.8979 17.8079 43.8184 17.8042C39.739 17.8005 36.4311 21.1063 36.4274 25.1924C36.4237 29.0417 39.3698 32.2514 43.2019 32.5694V51.3172C43.2019 57.2114 38.2438 62.0185 32.1818 62.0407H31.1666C25.112 62.0185 20.165 57.2114 20.1465 51.3172V36.0712C27.3751 35.5609 33.1269 29.6371 33.1528 22.4375V11.0853C36.1062 9.96491 37.594 6.6591 36.4754 3.70088C35.3568 0.742656 32.0563 -0.747548 29.1029 0.372878C26.1494 1.4933 24.6616 4.79912 25.7802 7.75734C26.5038 9.66909 28.1873 11.0484 30.1993 11.3812V22.4264C30.1772 28.317 25.2375 33.1241 19.1904 33.15H18.1567C12.1021 33.1278 7.16245 28.3207 7.1403 22.4264V11.2776C10.2008 10.49 12.043 7.36907 11.2567 4.30731C10.474 1.24186 7.35811 -0.603335 4.2976 0.180594C1.24078 0.968221 -0.605121 4.08914 0.181234 7.1546C0.690704 9.14031 2.21911 10.7008 4.18685 11.248V22.4375C4.21269 29.6297 9.96084 35.5572 17.1931 36.0638V51.3172C17.2189 58.8273 23.4692 64.9583 31.1629 64.9989H32.1855C39.8719 64.9804 46.1369 58.8495 46.1553 51.3172V32.2144C49.1642 31.2049 51.191 28.3835 51.1947 25.2072ZM28.3571 5.73096C28.3571 4.20008 29.5976 2.95762 31.126 2.95762C32.6544 2.95762 33.8948 4.20008 33.8948 5.73096C33.8948 7.26184 32.6544 8.50429 31.126 8.50429C29.5976 8.50429 28.3571 7.26184 28.3571 5.73096ZM2.95378 5.73096C2.95378 4.20008 4.19423 2.95762 5.72264 2.95762C7.25105 2.95762 8.4915 4.20008 8.4915 5.73096C8.4915 7.26184 7.25105 8.50429 5.72264 8.50429C4.19423 8.50429 2.95748 7.26184 2.95378 5.73096ZM43.811 29.6445C41.3634 29.6445 39.3809 27.6588 39.3809 25.2072C39.3809 22.7555 41.3634 20.7698 43.811 20.7698C46.2587 20.7698 48.2412 22.7555 48.2412 25.2072C48.2412 27.6588 46.2587 29.6445 43.811 29.6445Z" fill="#174A96"/>
<path d="M43.822 17.8042C39.7426 17.8005 36.4347 21.1063 36.431 25.1924C36.4273 29.0159 39.3328 32.2034 43.1243 32.562C44.158 32.5435 45.14 32.3624 46.159 32.2514V32.2181C49.1678 31.2086 51.1946 28.3872 51.1983 25.2109C51.202 21.1248 47.9015 17.8116 43.822 17.8079V17.8042ZM43.8147 29.6445C41.367 29.6445 39.3845 27.6588 39.3845 25.2072C39.3845 22.7555 41.367 20.7698 43.8147 20.7698C46.2623 20.7698 48.2448 22.7555 48.2448 25.2072C48.2448 27.6588 46.2623 29.6445 43.8147 29.6445Z" fill="white"/>
<path d="M30.1071 11.3626C30.1514 11.3626 30.1957 11.3552 30.24 11.3589C31.2441 11.4661 32.2114 11.3996 33.1565 11.0927V11.0853C36.11 9.96485 37.5978 6.65904 36.4791 3.70082C35.3605 0.742595 32.06 -0.747609 29.1066 0.372817C26.1531 1.49324 24.6653 4.79906 25.784 7.75728C26.4965 9.63945 28.1393 11.0039 30.1108 11.3626H30.1071ZM31.1297 2.95756C32.6581 2.95756 33.8986 4.20002 33.8986 5.7309C33.8986 7.26178 32.6581 8.50423 31.1297 8.50423C29.6013 8.50423 28.3608 7.26178 28.3608 5.7309C28.3608 4.20002 29.6013 2.95756 31.1297 2.95756Z" fill="#174A96"/>
<path d="M4.18685 11.2481V11.2629C4.53388 11.2999 4.88091 11.3368 5.21686 11.4145C5.31654 11.4145 5.41622 11.4145 5.51959 11.4182C5.83709 11.4256 6.15458 11.4108 6.46839 11.4182C6.48315 11.4182 6.49054 11.4182 6.50161 11.4182C6.71574 11.3812 6.92986 11.359 7.1366 11.3479V11.2814C10.1971 10.4937 12.0393 7.37281 11.253 4.31105C10.474 1.2419 7.35811 -0.603295 4.2976 0.180634C1.24078 0.968261 -0.605121 4.08919 0.181234 7.15464C0.690704 9.14035 2.21911 10.7008 4.18685 11.2481ZM5.72264 2.95767C7.25105 2.95767 8.4915 4.20012 8.4915 5.731C8.4915 7.26188 7.25105 8.50433 5.72264 8.50433C4.19423 8.50433 2.95748 7.26188 2.95378 5.731C2.95378 4.20012 4.19423 2.95767 5.72264 2.95767Z" fill="#174A96"/>
</g>
<defs>
<clipPath id="clip0_862_1175">
<rect width="51.1983" height="64.9989" fill="white"/>
</clipPath>
</defs>
</svg>
