<svg width="401" height="84" viewBox="0 0 401 84" fill="none" xmlns="http://www.w3.org/2000/svg">
<g clip-path="url(#clip0_767_1882)">
<path d="M29.2372 72.4992C24.8516 73.2114 20.483 73.1945 16.1517 72.1362C7.24831 69.9621 1.03459 63.1989 0.396938 54.0852C-0.125394 46.5725 0.0272352 39.0054 0.00688461 31.4655C0.000101068 28.9013 2.37773 27.0291 5.08776 27.1173C7.70959 27.2055 9.72431 29.2303 9.74466 31.937C9.78197 37.4045 9.69378 42.872 9.79214 48.3362C9.82945 50.3441 10.0262 52.4029 10.5349 54.3396C12.2885 61.0214 18.102 64.6743 25.2959 63.8027C32.8562 62.8835 37.1976 58.057 37.2689 50.412C37.313 45.9043 37.2383 41.3966 37.2994 36.889C37.313 35.8375 36.9467 35.4203 35.9732 35.1727C33.0834 34.4367 30.5192 33.0732 28.3655 30.9805C23.6713 26.422 23.6068 20.0217 28.2128 15.3682C34.8302 8.6864 48.3193 8.48967 55.1605 14.9713C60.5941 20.1201 60.2685 27.5514 54.2379 32.0048C52.4606 33.3174 50.2661 34.0704 48.2853 35.1185C47.9055 35.3186 47.3323 35.7154 47.339 36.0105C47.4578 41.9122 47.0847 47.8987 47.9665 53.6918C49.018 60.5974 55.035 64.2368 61.9983 63.8027C70.9118 63.2464 74.6767 57.2701 74.8429 49.4351C74.9684 43.5775 74.8429 37.7132 74.8836 31.8522C74.9006 29.3626 76.7457 27.3411 79.0657 27.1037C81.7011 26.8324 83.8582 28.2026 84.5162 30.6142C84.6621 31.1467 84.6756 31.7267 84.6756 32.2863C84.6756 38.2016 84.8147 44.1236 84.618 50.0355C84.3907 56.8767 82.5049 63.1345 77.0374 67.7982C73.5744 70.7524 69.4534 72.2821 65 72.6348C61.8829 72.8824 58.7184 72.584 55.5776 72.4279C54.689 72.3838 54.3736 72.567 54.0208 73.4285C53.2814 75.2329 52.5115 77.112 51.3379 78.6417C45.9654 85.6355 36.5532 85.1199 31.7572 77.6139C30.7702 76.0673 30.119 74.3104 29.2406 72.5025L29.2372 72.4992ZM42.309 65.2374C41.2305 66.2651 40.3656 67.3708 39.2531 68.0831C37.6284 69.121 37.8658 70.498 38.1982 71.9293C38.5781 73.5777 39.694 74.541 41.3627 74.7852C43.1638 75.0498 44.7409 74.1408 45.4668 72.4958C46.2164 70.7931 45.8568 68.7139 44.6697 67.6048C43.8896 66.8756 43.1604 66.0955 42.309 65.2374V65.2374ZM52.7048 17.5355C52.4165 21.5819 52.1452 25.418 51.8671 29.3151C53.9225 28.1891 55.2453 26.3304 55.5709 23.9087C55.927 21.28 54.9264 19.1229 52.7014 17.5355H52.7048Z" fill="white"/>
<path d="M26.2185 3.83297C24.9398 4.47402 23.7595 5.06758 22.5791 5.65774L22.5927 6.0478C23.9223 6.20382 25.2552 6.35984 26.5509 6.51247C27.1478 8.79513 24.7261 11.919 21.7108 12.4684C18.4344 13.0654 15.3546 11.1117 14.4626 7.87596C13.6079 4.78267 15.3004 1.54013 18.3598 0.403891C21.4293 -0.735743 24.6074 0.580263 26.2219 3.83297H26.2185Z" fill="white"/>
<path d="M68.9887 3.83269L65.3697 5.68121L65.4477 6.05091L69.3414 6.51558C69.5314 9.36806 67.3539 11.9797 64.4505 12.4749C61.2385 13.021 58.0333 11.0131 57.26 7.97405C56.4222 4.68064 58.1045 1.46863 61.2385 0.376481C64.3589 -0.712277 67.4929 0.644431 68.9921 3.83269H68.9887Z" fill="white"/>
<path d="M213.698 40.7015V28.1892C213.698 27.1106 214.326 26.4526 215.374 26.4526C216.422 26.4526 217.05 27.1106 217.05 28.1892V40.4166C217.05 43.4997 218.996 45.6704 222.439 45.6704C225.882 45.6704 227.842 43.4997 227.842 40.4166V28.1892C227.842 27.1106 228.47 26.4526 229.518 26.4526C230.566 26.4526 231.18 27.1106 231.18 28.1892V40.7015C231.18 45.355 227.856 48.6484 222.439 48.6484C217.022 48.6484 213.698 45.355 213.698 40.7015V40.7015Z" fill="white"/>
<path d="M236.389 46.8236V28.2638C236.389 27.1547 237.078 26.4526 238.187 26.4526C238.981 26.4526 239.445 26.7206 239.998 27.5007L250.625 42.6178H250.743V28.1587C250.743 27.0971 251.371 26.4526 252.375 26.4526C253.379 26.4526 254.006 27.0971 254.006 28.1587V46.7931C254.006 47.8852 253.362 48.5297 252.239 48.5297C251.415 48.5297 250.981 48.2753 250.428 47.4986L239.785 32.3815H239.649V46.8236C239.649 47.8852 239.035 48.5297 238.017 48.5297C237 48.5297 236.386 47.8852 236.386 46.8236H236.389Z" fill="white"/>
<path d="M259.216 46.7931V28.1892C259.216 27.1106 259.844 26.4526 260.892 26.4526C261.94 26.4526 262.567 27.1106 262.567 28.1892V46.7931C262.567 47.8717 261.923 48.5297 260.892 48.5297C259.861 48.5297 259.216 47.8717 259.216 46.7931Z" fill="white"/>
<path d="M273.407 46.7931L266.597 28.9083C266.478 28.5657 266.417 28.2638 266.417 27.9654C266.417 27.0665 267.105 26.4526 268.123 26.4526C268.978 26.4526 269.5 26.8427 269.785 27.711L275.697 44.5206H275.788L281.7 27.6974C281.999 26.8156 282.463 26.456 283.318 26.456C284.322 26.456 285.024 27.0835 285.024 27.9518C285.024 28.2367 284.963 28.5352 284.844 28.8642L278.02 46.81C277.555 48.0379 276.897 48.5297 275.714 48.5297C274.53 48.5297 273.858 48.0209 273.407 46.7931V46.7931Z" fill="white"/>
<path d="M288.87 46.5521V28.4265C288.87 27.3479 289.498 26.6899 290.546 26.6899H302.041C302.97 26.6899 303.597 27.2598 303.597 28.1416C303.597 29.0235 302.97 29.5933 302.041 29.5933H292.221V35.8952H300.769C301.651 35.8952 302.264 36.4345 302.264 37.2858C302.264 38.1372 301.668 38.6765 300.769 38.6765H292.221V45.382H302.041C302.97 45.382 303.597 45.9518 303.597 46.8337C303.597 47.7155 302.97 48.2853 302.041 48.2853H290.546C289.498 48.2853 288.87 47.6273 288.87 46.5488V46.5521Z" fill="white"/>
<path d="M307.25 46.8371V28.4265C307.25 27.3479 307.878 26.6899 308.926 26.6899H316.951C321.397 26.6899 324.165 29.2643 324.165 33.2903C324.165 36.1801 322.639 38.5137 320.047 39.426L324.04 45.8772C324.307 46.3419 324.399 46.6539 324.399 47.0304C324.399 47.9122 323.666 48.5736 322.693 48.5736C321.916 48.5736 321.509 48.2887 321.017 47.4069L316.622 39.9823H310.601V46.8371C310.601 47.9156 309.943 48.5736 308.926 48.5736C307.908 48.5736 307.25 47.9156 307.25 46.8371V46.8371ZM316.639 37.2723C319.227 37.2723 320.709 35.8511 320.709 33.3819C320.709 30.9127 319.138 29.5051 316.547 29.5051H310.601V37.2723H316.635H316.639Z" fill="white"/>
<path d="M328.656 42.8347C329.717 42.8517 331.04 45.6668 334.809 45.7923C338.577 45.9178 340.296 44.3983 340.347 42.4684C340.442 38.7341 333.357 38.11 333.357 38.11C329.046 37.1976 327.706 35.5729 327.706 32.4593C327.706 28.7623 329.748 26.6729 334.69 26.3338C339.632 25.9946 342.264 28.7724 342.26 29.4915C342.26 30.3598 341.646 30.9296 340.778 30.9296C339.971 30.9296 339.198 28.9183 334.642 29.1964C332.112 29.1964 330.243 30.4242 330.243 32.3982C330.243 33.9686 331.366 35.0167 334.164 35.617L336.515 36.1122C341.049 37.0687 342.905 38.8799 342.905 42.0241C342.905 46.0942 339.723 48.5804 334.68 48.5804C330.487 48.5804 325.023 43.6216 328.652 42.8415L328.656 42.8347Z" fill="white"/>
<path d="M347.141 46.7931V28.1892C347.141 27.1106 347.768 26.4526 348.816 26.4526C349.864 26.4526 350.492 27.1106 350.492 28.1892V46.7931C350.492 47.8717 349.848 48.5297 348.816 48.5297C347.785 48.5297 347.141 47.8717 347.141 46.7931Z" fill="white"/>
<path d="M360.074 46.793V29.5967H354.776C353.846 29.5967 353.219 29.0269 353.219 28.145C353.219 27.2632 353.846 26.6934 354.776 26.6934H368.709C369.639 26.6934 370.266 27.2632 370.266 28.145C370.266 29.0269 369.639 29.5967 368.709 29.5967H363.425V46.793C363.425 47.8716 362.78 48.5296 361.749 48.5296C360.718 48.5296 360.074 47.8716 360.074 46.793Z" fill="white"/>
<path d="M380.35 46.7931V39.4431L373.509 29.0711C373.254 28.698 373.163 28.352 373.163 27.9789C373.163 27.0971 373.882 26.4526 374.825 26.4526C375.513 26.4526 375.903 26.707 376.32 27.3955L381.995 36.2277H382.1L387.771 27.3955C388.175 26.7206 388.595 26.4526 389.253 26.4526C390.183 26.4526 390.898 27.0971 390.898 27.9654C390.898 28.3385 390.807 28.6844 390.552 29.0745L383.697 39.4465V46.7965C383.697 47.8751 383.07 48.5331 382.022 48.5331C380.974 48.5331 380.346 47.8751 380.346 46.7965L380.35 46.7931Z" fill="white"/>
<path d="M146.389 26.1812C140.284 26.1812 135.332 31.1297 135.332 37.2383C135.332 43.3469 140.28 48.2955 146.389 48.2955C152.497 48.2955 157.446 43.3469 157.446 37.2383C157.446 31.1297 152.497 26.1812 146.389 26.1812ZM146.389 43.4927C142.933 43.4927 140.131 40.6911 140.131 37.2383C140.131 33.7855 142.933 30.9805 146.389 30.9805C149.845 30.9805 152.643 33.7821 152.643 37.2383C152.643 40.6945 149.842 43.4927 146.389 43.4927Z" fill="white"/>
<path d="M170.752 26.1812C164.647 26.1812 159.695 31.1297 159.695 37.2383C159.695 43.3469 164.643 48.2955 170.752 48.2955C176.86 48.2955 181.809 43.3469 181.809 37.2383C181.809 31.1297 176.86 26.1812 170.752 26.1812V26.1812ZM170.752 43.4927C167.296 43.4927 164.494 40.6911 164.494 37.2383C164.494 33.7855 167.296 30.9805 170.752 30.9805C174.208 30.9805 177.01 33.7821 177.01 37.2383C177.01 40.6945 174.208 43.4927 170.752 43.4927Z" fill="white"/>
<path d="M131.37 26.5713C130.38 26.5713 129.538 27.1988 129.216 28.0772L129.189 28.0671L125.017 40.698L120.591 28.413C120.381 27.3616 119.451 26.5713 118.339 26.5713C117.226 26.5713 116.317 27.348 116.093 28.3825L111.593 40.5725L107.675 28.6369C107.444 27.6126 106.529 26.846 105.433 26.846C104.165 26.846 103.134 27.8737 103.134 29.1456C103.134 29.3661 103.167 29.5764 103.225 29.7765C103.256 29.8884 103.296 29.997 103.347 30.1021L109.418 46.4606C109.727 47.3628 110.582 48.0141 111.593 48.0141C112.603 48.0141 113.411 47.3968 113.74 46.5285L118.339 34.2503L122.799 46.3216C123.064 47.295 123.956 48.0141 125.014 48.0141C126.072 48.0141 126.876 47.3628 127.188 46.4606L133.47 29.8003C133.507 29.7155 133.541 29.6307 133.568 29.5425C133.632 29.3288 133.666 29.1049 133.666 28.8709C133.666 27.6024 132.639 26.5713 131.367 26.5713H131.37Z" fill="white"/>
<path d="M198.985 35.122C198.985 35.122 198.965 35.122 198.958 35.122H190.146V30.672H199.541C200.705 30.672 201.651 29.7257 201.651 28.5589C201.651 27.3921 200.708 26.4492 199.541 26.4492H188.094C186.826 26.4492 185.794 27.4769 185.794 28.7488V45.3651H185.798C185.839 46.5997 186.849 47.5901 188.094 47.5901C189.339 47.5901 190.35 46.5997 190.39 45.3651H190.394V39.3379H198.958C198.958 39.3379 198.975 39.3379 198.985 39.3379C200.148 39.3379 201.095 38.395 201.095 37.2283C201.095 36.0615 200.152 35.1186 198.985 35.1186V35.122Z" fill="white"/>
<path d="M393.612 29.5523V29.0944C393.612 27.3544 395.056 26.0146 396.925 26.0146C398.794 26.0146 400.239 27.368 400.239 29.0944V29.5523C400.239 31.3906 398.845 32.7371 396.925 32.7371C395.006 32.7371 393.612 31.3906 393.612 29.5523ZM399.537 29.5523V29.0944C399.537 27.7411 398.401 26.693 396.925 26.693C395.45 26.693 394.32 27.7411 394.32 29.0944V29.5523C394.32 30.987 395.416 32.035 396.925 32.035C398.435 32.035 399.537 30.987 399.537 29.5523ZM395.731 28.0192C395.731 27.7919 395.854 27.6732 396.06 27.6732H397.254C397.844 27.6732 398.279 28.0836 398.279 28.6501C398.279 29.0944 398.045 29.4573 397.658 29.5862L398.173 30.4986C398.214 30.563 398.231 30.6275 398.231 30.6987C398.231 30.8683 398.109 30.9734 397.933 30.9734C397.78 30.9734 397.668 30.892 397.587 30.7563L397.014 29.7015H396.4V30.6682C396.4 30.8784 396.278 30.9972 396.071 30.9972C395.864 30.9972 395.731 30.8751 395.731 30.6682V28.0226V28.0192ZM396.891 29.2029C397.366 29.2029 397.61 29.0265 397.61 28.6772C397.61 28.3618 397.376 28.1786 396.983 28.1786H396.403V29.2029H396.895H396.891Z" fill="white"/>
</g>
<defs>
<clipPath id="clip0_767_1882">
<rect width="400.239" height="83.58" fill="white"/>
</clipPath>
</defs>
</svg>
